HIERARCHY
ROOT Hips
{
  OFFSET -102.467 93.6631 130.069
  CHANNELS 6 Xposition Yposition Zposition Zrotation Xrotation Yrotation
  JOINT LeftUpLeg
  {
    OFFSET 8.64259 1.95398 -2.38835
    CHANNELS 3 Zrotation Xrotation Yrotation
    JOINT LeftLeg
    {
      OFFSET 43.7702 0 0
      CHANNELS 3 Zrotation Xrotation Yrotation
      JOINT LeftFoot
      {
        OFFSET 40.6238 0 0
        CHANNELS 3 Zrotation Xrotation Yrotation
        JOINT LeftToeBase
        {
          OFFSET 12.7242 0 0
          CHANNELS 3 Zrotation Xrotation Yrotation
          End Site
          {
            OFFSET 0 0 0
          }
        }
      }
    }
  }
  JOINT RightUpLeg
  {
    OFFSET -8.2249 1.95398 -2.59336
    CHANNELS 3 Zrotation Xrotation Yrotation
    JOINT RightLeg
    {
      OFFSET 43.5653 0 0
      CHANNELS 3 Zrotation Xrotation Yrotation
      JOINT RightFoot
      {
        OFFSET 40.6238 0 0
        CHANNELS 3 Zrotation Xrotation Yrotation
        JOINT RightToeBase
        {
          OFFSET 12.7242 0 0
          CHANNELS 3 Zrotation Xrotation Yrotation
          End Site
          {
            OFFSET 0 0 0
          }
        }
      }
    }
  }
  JOINT Spine
  {
    OFFSET 0.165834 0.87714 6.61349
    CHANNELS 3 Zrotation Xrotation Yrotation
    JOINT Spine1
    {
      OFFSET 7.38963 1.71661e-005 0
      CHANNELS 3 Zrotation Xrotation Yrotation
      JOINT Spine2
      {
        OFFSET 11.9445 1.14441e-005 0
        CHANNELS 3 Zrotation Xrotation Yrotation
        JOINT Spine3
        {
          OFFSET 14.7254 4.19617e-005 0
          CHANNELS 3 Zrotation Xrotation Yrotation
          JOINT Spine4
          {
            OFFSET 10.9679 0 0
            CHANNELS 3 Zrotation Xrotation Yrotation
            JOINT RightShoulder
            {
              OFFSET 2.46616 -1.6653 3.69651
              CHANNELS 3 Zrotation Xrotation Yrotation
              JOINT RightArm
              {
                OFFSET 13.0012 0 0
                CHANNELS 3 Zrotation Xrotation Yrotation
                JOINT RightForeArm
                {
                  OFFSET 28.7848 1.52588e-005 0
                  CHANNELS 3 Zrotation Xrotation Yrotation
                  JOINT RightHand
                  {
                    OFFSET 26.5688 1.52588e-005 0
                    CHANNELS 3 Zrotation Xrotation Yrotation
                    End Site
                    {
                      OFFSET 0 0 0
                    }
                  }
                }
              }
            }
            JOINT LeftShoulder
            {
              OFFSET 2.38034 -1.29275 -3.7523
              CHANNELS 3 Zrotation Xrotation Yrotation
              JOINT LeftArm
              {
                OFFSET 16.3182 6.10351e-005 0
                CHANNELS 3 Zrotation Xrotation Yrotation
                JOINT LeftForeArm
                {
                  OFFSET 27.0901 0 0
                  CHANNELS 3 Zrotation Xrotation Yrotation
                  JOINT LeftHand
                  {
                    OFFSET 24.5451 1.52588e-005 0
                    CHANNELS 3 Zrotation Xrotation Yrotation
                    End Site
                    {
                      OFFSET 0 0 0
                    }
                  }
                }
              }
            }
            JOINT Neck
            {
              OFFSET 5.0226 -0.0266342 0
              CHANNELS 3 Zrotation Xrotation Yrotation
              JOINT Head
              {
                OFFSET 6.69363 2.86102e-005 0
                CHANNELS 3 Zrotation Xrotation Yrotation
                End Site
                {
                  OFFSET 0 0 0
                }
              }
            }
          }
        }
      }
    }
  }
}
MOTION
Frames:	14
Frame Time:	0.0416667
-311.026 85.9015 295.369 106.358 41.1073 90.9447 -174.672 15.4589 96.7022 88.005 -36.277 167.133 -82.1042 12.0661 -73.5029 -178.79 35.4909 19.5183 122.628 -31.1546 52.2103 0.876253 -1.48231 32.8591 43.2323 11.6059 -57.693 -3.73729 67.4055 -131.049 0.116131 4.09382 -92.8235 18.6228 -1.26152 -5.49145 6.94111 -1.50164 -5.43089 -15.501 0.444395 -5.61656 4.51161 0.444388 -5.61657 113.865 0.34621 -36.8298 89.6077 -32.4844 -27.5976 -173.478 -3.04014 -177.502 15.3046 -8.53438 -61.0948 -55.7216 -27.7277 140.422 -82.3162 51.2857 92.5536 -18.6413 -20.7252 -153.085 36.4775 -2.79412 -12.0268 -95.2844 -36.8913 3.47346 46.8867 -34.373 1.02401 
-311.311 85.8989 295.671 106.065 41.1837 90.9286 -174.672 15.4745 96.3263 87.5949 -36.1618 167.178 -83.2308 11.5688 -72.9126 -179.497 36.3086 19.9134 122.821 -31.2953 52.0847 3.40141 -5.19864 33.8724 43.7881 12.814 -59.3674 -2.6714 68.1804 -132.983 0.126336 4.08122 -92.7937 18.6497 -1.22654 -5.43784 6.96825 -1.46432 -5.37887 -15.4757 0.461731 -5.55495 4.53693 0.461731 -5.55495 114.001 0.128753 -36.6526 89.3659 -32.9321 -27.9565 -173.596 -6.45165 -178.023 15.2366 -8.30827 -60.0151 -56.0306 -27.2646 140.134 -83.05 51.6472 93.0022 -18.7194 -20.8574 -153.588 37.0883 -2.67655 -11.5728 -95.0308 -36.6256 3.35446 46.7017 -34.1062 1.29245 
-312.145 85.8681 296.545 105.21 41.4012 90.8869 -174.66 15.5206 95.228 86.5444 -35.2868 167.397 -86.6062 10.0204 -70.5973 178.33 38.4968 21.1323 123.385 -31.659 52.0016 13.2233 -17.8198 37.7127 44.0707 18.5997 -65.5748 -0.637159 72.2557 -137.389 0.155721 4.04454 -92.7074 18.728 -1.12515 -5.28251 7.04708 -1.35624 -5.2281 -15.4021 0.512011 -5.37642 4.61053 0.512011 -5.37641 114.392 -0.494481 -36.1465 88.6367 -34.2136 -29.0175 -174.216 -16.0096 -179.463 14.7277 -7.532 -56.9859 -56.9014 -25.9385 139.311 -84.9296 52.7132 94.102 -18.9701 -21.1431 -154.994 38.8076 -2.29984 -10.2459 -94.2889 -35.837 3.01045 46.1214 -33.3051 2.08308 
-313.478 85.8111 297.932 103.827 41.7351 90.8346 -174.609 15.5323 93.4619 85.3416 -32.3515 167.957 -92.0776 6.90253 -65.1788 174.541 41.3049 23.2435 124.441 -31.8023 52.6605 34.9398 -37.4097 49.088 40.77 33.4769 -73.7075 -14.2871 84.2277 -125.513 0.202641 3.98521 -92.5693 18.8543 -0.963021 -5.03422 7.17416 -1.1834 -4.98714 -15.2831 0.592378 -5.09101 4.72951 0.592378 -5.09101 115.017 -1.47182 -35.3578 87.3814 -36.2148 -30.7876 -174.913 -29.4238 179.966 13.209 -6.16426 -52.7651 -58.221 -23.8686 138.035 -87.0583 54.5116 95.1271 -19.4522 -21.2714 -157.061 41.3955 -1.58345 -8.08336 -93.0791 -34.5139 2.46248 45.0411 -31.9305 3.40057 
-315.256 85.6958 299.781 101.943 42.1522 90.7946 -174.506 15.4458 91.0945 83.9933 -27.3584 168.728 -98.6289 1.0168 -56.7883 169.174 43.5552 26.0939 126.262 -30.8052 53.9055 65.3961 -49.7889 70.805 29.6099 57.3235 -70.2904 -150.117 49.0395 17.9632 0.265396 3.90435 -92.3846 19.0256 -0.745929 -4.70287 7.34652 -0.951966 -4.66562 -15.121 0.700308 -4.70986 4.8916 0.700295 -4.70987 115.848 -2.74603 -34.3386 85.5182 -38.7993 -33.3172 -174.823 -43.6549 179.996 10.7976 -4.59262 -48.5683 -59.8518 -21.2047 136.404 -87.896 57.1646 94.7424 -20.2662 -20.768 -159.433 44.5366 -0.411412 -5.10951 -91.4051 -32.6177 1.72906 43.2651 -29.9008 5.31462 
-317.463 85.4036 302.048 99.5892 42.6138 90.7968 -174.344 15.2467 88.1821 81.8873 -22.4989 169.39 -104.674 -8.03841 -47.9037 162.826 44.0785 29.0108 128.494 -28.7735 54.7226 91.2917 -50.9846 91.0845 -26.6809 74.4394 -10.8853 -131.855 -18.7628 33.682 0.342506 3.80291 -92.1595 19.2391 -0.479631 -4.30026 7.5612 -0.668265 -4.27506 -14.9181 0.833714 -4.24595 5.09454 0.833708 -4.24595 116.862 -4.25994 -33.1424 82.9217 -41.8077 -36.7042 -173.842 -56.4477 179.993 8.39334 -3.31995 -45.1901 -61.65 -18.1222 134.518 -85.0194 60.7308 90.6819 -21.5365 -19.1053 -161.63 47.8635 1.32329 -1.35688 -89.2517 -30.1456 0.811747 40.5806 -27.1473 8.04646 
-320.068 84.9192 304.669 96.8004 43.0756 90.8781 -174.165 14.8023 84.8337 78.9923 -19.2169 169.88 -109.109 -19.1888 -39.7883 156.514 42.343 31.0153 130.581 -26.3151 54.8113 118.586 -44.9079 111.132 -88.4759 58.7088 67.7774 -82.5567 -49.5051 75.5336 0.432522 3.68207 -91.9017 19.4912 -0.170811 -3.84101 7.8146 -0.339562 -3.8298 -14.6771 0.990654 -3.71516 5.33558 0.990635 -3.71517 118.029 -5.95719 -31.8231 79.4286 -45.0537 -41.0906 -172.138 -67.1757 179.988 6.68301 -2.51719 -42.7158 -63.481 -14.8111 132.485 -74.5369 64.5805 79.0858 -23.4145 -15.885 -163.032 50.9731 3.66996 3.10629 -86.9121 -28.7262 -0.716977 40.4956 -24.1879 15.2335 
-323.073 84.2392 307.55 93.6273 43.4897 91.08 -174.039 13.9742 81.1668 75.7263 -17.255 170.274 -110.927 -30.6355 -31.6658 150.9 38.7874 31.6414 132.041 -23.889 54.4973 38.2129 -32.5684 55.7603 -53.9336 2.02559 15.6223 28.2556 17.4429 127.08 0.533312 3.54366 -91.6203 19.7776 0.172293 -3.34288 8.1024 0.0250833 -3.34723 -14.4015 1.1685 -3.13695 5.61116 1.16851 -3.13696 119.318 -7.78363 -30.4351 74.853 -48.321 -46.648 -170.04 -76.2227 179.976 5.76836 -2.09522 -40.93 -65.2329 -11.4559 130.409 -52.9674 66.1517 56.3346 -26.0734 -11.1347 -162.923 53.46 6.56129 8.14663 -81.383 -14.855 1.0841 10.6294 -15.3059 -5.19675 
-326.068 84.7367 310.523 90.1366 43.8111 91.4398 -174.572 12.3057 77.7561 74.4096 -18.0913 170.408 -108.804 -40.7044 -24.4356 145.923 34.4424 31.2514 132.52 -22.2488 49.8536 60.3817 -33.1303 72.8594 72.9197 -38.2495 -163.353 34.273 -45.0008 -104.604 0.642647 3.3899 -91.3254 20.0935 0.539861 -2.82474 8.41954 0.415064 -2.84576 -14.0958 1.3636 -2.53224 5.91686 1.3636 -2.53224 120.697 -9.69246 -29.0289 69.0127 -51.3676 -53.5499 -167.789 -84.1287 179.933 5.46135 -1.91898 -39.6193 -66.8307 -8.2049 128.382 -27.9766 61.773 29.8092 -29.6215 -5.56354 -160.709 54.9733 9.7787 13.5712 -76.8517 -8.10518 1.70265 -4.59419 -8.77596 -17.9211 
-329.295 84.1143 313.881 86.4085 44.0044 91.9819 -175.464 10.6387 74.2128 72.1904 -17.7051 170.604 -102.726 -47.6449 -13.906 141.253 30.2105 30.4521 132.752 -17.0718 46.8617 141.62 -21.6519 115.149 151.704 42.1178 177.175 -110.092 65.808 -9.37475 0.757917 3.22334 -91.0265 20.433 0.922042 -2.30403 8.76027 0.81979 -2.34236 -13.7653 1.57174 -1.92062 6.24735 1.57176 -1.92062 122.136 -11.6455 -27.6439 61.7797 -53.9321 -61.9189 15.0251 -88.7207 0.360709 5.55437 -1.89012 -38.6402 -68.2375 -5.15561 126.474 -11.796 51.7665 11.4331 -33.962 -0.37209 -156.207 55.2691 12.9999 19.1849 -72.6598 -4.65719 1.80317 -13.0841 -3.23268 -28.1245 
-332.925 83.2381 317.215 82.5339 44.046 92.7136 -176.569 8.77252 70.2267 70.4103 -17.6688 170.7 -94.34 -50.4664 -3.93741 136.691 26.5818 29.6548 130.688 -12.9825 45.0137 -75.4723 28.7621 82.768 -47.5386 -74.2397 -90.7399 -104.781 17.2822 17.6042 0.876542 3.04736 -90.732 20.7892 1.30943 -1.79606 9.11757 1.22914 -1.85194 -13.4168 1.78862 -1.31955 6.59579 1.78863 -1.31955 123.608 -13.6115 -26.3056 53.1714 -55.7471 -71.7328 17.1917 -82.0678 0.0674987 5.88686 -1.94475 -37.8975 -69.4434 -2.3637 124.732 -3.98995 39.3105 0.568222 -38.6075 3.29155 -149.804 54.2538 15.8887 24.8289 -68.6719 -1.97421 1.52203 -18.7089 2.06218 -36.7393 
-336.621 82.5553 320.488 78.6102 43.9268 93.6239 -178.185 6.80678 65.8691 69.8627 -18.0113 170.623 -86.0375 -50.5019 2.87431 132.272 23.7155 29.042 126.174 -8.34319 42.5518 -65.055 23.5676 79.3272 -69.7198 -54.5943 -94.9382 -95.4736 7.6636 23.3245 0.995824 2.8662 -90.4494 21.1537 1.69261 -1.3141 9.48312 1.63313 -1.38733 -13.0588 2.00926 -0.744555 6.95389 2.00926 -0.744546 125.093 -15.564 -25.0285 43.4422 -56.5638 -82.7249 19.7304 -75.7195 0.0429531 6.34672 -2.04286 -37.3262 -70.4553 0.144198 123.19 -0.873179 26.7471 -6.51685 -42.7467 4.90437 -142.367 52.0164 18.1777 30.3728 -64.9266 -0.172804 0.89736 -22.5547 6.30831 -42.6485 
-340.372 81.8449 323.64 74.7291 43.6526 94.6865 179.685 4.90779 60.7526 70.4877 -17.6207 170.398 -78.7929 -49.3058 6.63241 128.239 21.6089 28.6567 117.755 -2.61433 40.3554 -51.0884 17.2277 76.3899 -72.4928 -43.7861 -89.3352 -88.3294 5.55778 24.7458 1.11265 2.68404 -90.1849 21.5185 2.06213 -0.868634 9.84887 2.02191 -0.958587 -12.6991 2.22782 -0.208432 7.31351 2.22781 -0.208451 126.569 -17.4796 -23.8224 33.1007 -56.1816 -94.3555 22.4514 -69.5005 0.0338738 6.86513 -2.16197 -36.8845 -71.2909 2.36439 121.858 -0.302984 15.2352 -11.8857 -45.6757 4.71972 -134.81 48.8147 19.7229 35.6862 -61.395 0.942951 0.12649 -25.5214 9.60083 -46.6505 
-344.17 80.9317 326.615 70.9673 43.2401 95.8676 176.865 3.17359 54.4625 71.7773 -18.6979 169.829 -75.2196 -48.0764 3.80618 124.903 20.2083 28.4879 103.363 5.96534 39.4991 -48.886 11.9461 76.1809 -86.6659 -37.5528 -100.777 -84.2202 6.75857 23.5498 1.22388 2.50423 -89.9432 21.8773 2.40935 -0.466801 10.2084 2.38646 -0.572449 -12.3446 2.43819 0.279323 7.66807 2.43817 0.279336 128.017 -19.3354 -22.6976 22.7899 -54.4651 -105.924 25.4303 -63.2117 0.0296611 7.40355 -2.29037 -36.5464 -71.974 4.31016 120.736 -1.19772 5.2409 -16.4508 -47.0969 3.37871 -127.745 44.991 20.5068 40.6285 -58.0556 1.57808 -0.681911 -28.0521 12.1889 -49.3589 
